<svg xmlns="http://www.w3.org/2000/svg" width="1063" height="202" viewBox="0 0 1063 202">
<title>Choose a starter, then discover 25 pets</title>
<rect width="1063" height="202" rx="10" fill="#18181e"/>
<rect width="1063" height="30" rx="10" fill="#33333d"/>
<rect y="20" width="1063" height="10" fill="#33333d"/>
<circle cx="18" cy="15" r="6" fill="#ff5f57"/>
<circle cx="38" cy="15" r="6" fill="#febc2e"/>
<circle cx="58" cy="15" r="6" fill="#28c840"/>
<text x="531" y="20" fill="#b0b0b8" font-family="sans-serif" font-size="13" text-anchor="middle">Choose a starter, then discover 25 pets</text>
<g shape-rendering="crispEdges">
<rect x="50" y="53" width="9" height="9" fill="#ffffff"/>
<rect x="536" y="44" width="9" height="18" fill="#464856"/>
<rect x="536" y="44" width="9" height="9" fill="#464856"/>
<rect x="545" y="53" width="9" height="9" fill="#464856"/>
<rect x="617" y="53" width="9" height="9" fill="#464856"/>
<rect x="626" y="44" width="9" height="18" fill="#464856"/>
<rect x="626" y="44" width="9" height="9" fill="#464856"/>
<rect x="77" y="71" width="9" height="9" fill="#1e1a30"/>
<rect x="86" y="71" width="9" height="9" fill="#1e1a30"/>
<rect x="95" y="71" width="9" height="9" fill="#1e1a30"/>
<rect x="104" y="71" width="9" height="9" fill="#1e1a30"/>
<rect x="113" y="71" width="9" height="9" fill="#b8a8e0"/>
<rect x="140" y="62" width="9" height="9" fill="#b8a8e0"/>
<rect x="203" y="71" width="9" height="9" fill="#50a04b"/>
<rect x="212" y="71" width="9" height="9" fill="#50a04b"/>
<rect x="248" y="71" width="9" height="9" fill="#50a04b"/>
<rect x="257" y="71" width="9" height="9" fill="#50a04b"/>
<rect x="536" y="62" width="9" height="18" fill="#464856"/>
<rect x="536" y="62" width="9" height="9" fill="#464856"/>
<rect x="545" y="62" width="9" height="18" fill="#464856"/>
<rect x="545" y="62" width="9" height="9" fill="#464856"/>
<rect x="554" y="62" width="9" height="18" fill="#464856"/>
<rect x="554" y="62" width="9" height="9" fill="#464856"/>
<rect x="563" y="71" width="9" height="9" fill="#464856"/>
<rect x="599" y="71" width="9" height="9" fill="#464856"/>
<rect x="608" y="62" width="9" height="18" fill="#464856"/>
<rect x="608" y="62" width="9" height="9" fill="#464856"/>
<rect x="617" y="62" width="9" height="18" fill="#464856"/>
<rect x="617" y="62" width="9" height="9" fill="#464856"/>
<rect x="626" y="62" width="9" height="18" fill="#464856"/>
<rect x="626" y="62" width="9" height="9" fill="#464856"/>
<rect x="905" y="62" width="9" height="18" fill="#464856"/>
<rect x="905" y="62" width="9" height="9" fill="#464856"/>
<rect x="914" y="62" width="9" height="18" fill="#464856"/>
<rect x="914" y="62" width="9" height="9" fill="#464856"/>
<rect x="923" y="71" width="9" height="9" fill="#464856"/>
<rect x="968" y="71" width="9" height="9" fill="#464856"/>
<rect x="977" y="62" width="9" height="18" fill="#464856"/>
<rect x="977" y="62" width="9" height="9" fill="#464856"/>
<rect x="986" y="62" width="9" height="18" fill="#464856"/>
<rect x="986" y="62" width="9" height="9" fill="#464856"/>
<rect x="32" y="80" width="9" height="9" fill="#b8a8e0"/>
<rect x="59" y="89" width="9" height="9" fill="#1e1a30"/>
<rect x="68" y="80" width="9" height="18" fill="#1e1a30"/>
<rect x="68" y="80" width="9" height="9" fill="#1e1a30"/>
<rect x="77" y="80" width="9" height="18" fill="#3a3058"/>
<rect x="77" y="80" width="9" height="9" fill="#1e1a30"/>
<rect x="86" y="80" width="9" height="18" fill="#a8906a"/>
<rect x="86" y="80" width="9" height="9" fill="#3a3058"/>
<rect x="95" y="80" width="9" height="18" fill="#a8906a"/>
<rect x="95" y="80" width="9" height="9" fill="#3a3058"/>
<rect x="104" y="80" width="9" height="18" fill="#a8906a"/>
<rect x="104" y="80" width="9" height="9" fill="#3a3058"/>
<rect x="113" y="80" width="9" height="18" fill="#3a3058"/>
<rect x="113" y="80" width="9" height="9" fill="#1e1a30"/>
<rect x="122" y="80" width="9" height="18" fill="#1e1a30"/>
<rect x="122" y="80" width="9" height="9" fill="#1e1a30"/>
<rect x="131" y="89" width="9" height="9" fill="#1e1a30"/>
<rect x="194" y="80" width="9" height="9" fill="#50a04b"/>
<rect x="203" y="80" width="9" height="18" fill="#50a04b"/>
<rect x="203" y="80" width="9" height="9" fill="#96d26e"/>
<rect x="212" y="80" width="9" height="18" fill="#50a04b"/>
<rect x="212" y="80" width="9" height="9" fill="#50a04b"/>
<rect x="221" y="80" width="9" height="18" fill="#50a04b"/>
<rect x="221" y="80" width="9" height="9" fill="#50a04b"/>
<rect x="230" y="89" width="9" height="9" fill="#3c7837"/>
<rect x="239" y="80" width="9" height="18" fill="#50a04b"/>
<rect x="239" y="80" width="9" height="9" fill="#50a04b"/>
<rect x="248" y="80" width="9" height="18" fill="#50a04b"/>
<rect x="248" y="80" width="9" height="9" fill="#50a04b"/>
<rect x="257" y="80" width="9" height="18" fill="#50a04b"/>
<rect x="257" y="80" width="9" height="9" fill="#96d26e"/>
<rect x="266" y="80" width="9" height="9" fill="#50a04b"/>
<rect x="536" y="80" width="9" height="18" fill="#464856"/>
<rect x="536" y="80" width="9" height="9" fill="#464856"/>
<rect x="545" y="80" width="9" height="18" fill="#464856"/>
<rect x="545" y="80" width="9" height="9" fill="#464856"/>
<rect x="554" y="80" width="9" height="18" fill="#464856"/>
<rect x="554" y="80" width="9" height="9" fill="#464856"/>
<rect x="563" y="80" width="9" height="18" fill="#464856"/>
<rect x="563" y="80" width="9" height="9" fill="#464856"/>
<rect x="572" y="80" width="9" height="18" fill="#464856"/>
<rect x="572" y="80" width="9" height="9" fill="#464856"/>
<rect x="581" y="80" width="9" height="18" fill="#464856"/>
<rect x="581" y="80" width="9" height="9" fill="#464856"/>
<rect x="590" y="80" width="9" height="18" fill="#464856"/>
<rect x="590" y="80" width="9" height="9" fill="#464856"/>
<rect x="599" y="80" width="9" height="18" fill="#464856"/>
<rect x="599" y="80" width="9" height="9" fill="#464856"/>
<rect x="608" y="80" width="9" height="18" fill="#464856"/>
<rect x="608" y="80" width="9" height="9" fill="#464856"/>
<rect x="617" y="80" width="9" height="18" fill="#464856"/>
<rect x="617" y="80" width="9" height="9" fill="#464856"/>
<rect x="626" y="80" width="9" height="18" fill="#464856"/>
<rect x="626" y="80" width="9" height="9" fill="#464856"/>
<rect x="635" y="80" width="9" height="18" fill="#464856"/>
<rect x="635" y="80" width="9" height="9" fill="#464856"/>
<rect x="752" y="89" width="9" height="9" fill="#464856"/>
<rect x="761" y="80" width="9" height="18" fill="#464856"/>
<rect x="761" y="80" width="9" height="9" fill="#464856"/>
<rect x="770" y="80" width="9" height="18" fill="#464856"/>
<rect x="770" y="80" width="9" height="9" fill="#464856"/>
<rect x="779" y="80" width="9" height="18" fill="#464856"/>
<rect x="779" y="80" width="9" height="9" fill="#464856"/>
<rect x="788" y="80" width="9" height="18" fill="#464856"/>
<rect x="788" y="80" width="9" height="9" fill="#464856"/>
<rect x="797" y="80" width="9" height="18" fill="#464856"/>
<rect x="797" y="80" width="9" height="9" fill="#464856"/>
<rect x="806" y="89" width="9" height="9" fill="#464856"/>
<rect x="905" y="80" width="9" height="18" fill="#464856"/>
<rect x="905" y="80" width="9" height="9" fill="#464856"/>
<rect x="914" y="80" width="9" height="18" fill="#464856"/>
<rect x="914" y="80" width="9" height="9" fill="#464856"/>
<rect x="923" y="80" width="9" height="18" fill="#464856"/>
<rect x="923" y="80" width="9" height="9" fill="#464856"/>
<rect x="932" y="80" width="9" height="18" fill="#464856"/>
<rect x="932" y="80" width="9" height="9" fill="#464856"/>
<rect x="941" y="80" width="9" height="18" fill="#464856"/>
<rect x="941" y="80" width="9" height="9" fill="#464856"/>
<rect x="950" y="80" width="9" height="18" fill="#464856"/>
<rect x="950" y="80" width="9" height="9" fill="#464856"/>
<rect x="959" y="80" width="9" height="18" fill="#464856"/>
<rect x="959" y="80" width="9" height="9" fill="#464856"/>
<rect x="968" y="80" width="9" height="18" fill="#464856"/>
<rect x="968" y="80" width="9" height="9" fill="#464856"/>
<rect x="977" y="80" width="9" height="18" fill="#464856"/>
<rect x="977" y="80" width="9" height="9" fill="#464856"/>
<rect x="986" y="80" width="9" height="18" fill="#464856"/>
<rect x="986" y="80" width="9" height="9" fill="#464856"/>
<rect x="59" y="98" width="9" height="18" fill="#1e1a30"/>
<rect x="59" y="98" width="9" height="9" fill="#1e1a30"/>
<rect x="68" y="98" width="9" height="18" fill="#3a3058"/>
<rect x="68" y="98" width="9" height="9" fill="#3a3058"/>
<rect x="77" y="98" width="9" height="18" fill="#a8906a"/>
<rect x="77" y="98" width="9" height="9" fill="#a8906a"/>
<rect x="86" y="98" width="9" height="18" fill="#191919"/>
<rect x="86" y="98" width="9" height="9" fill="#d8c8a0"/>
<rect x="95" y="98" width="9" height="18" fill="#d8c8a0"/>
<rect x="95" y="98" width="9" height="9" fill="#d8c8a0"/>
<rect x="104" y="98" width="9" height="18" fill="#191919"/>
<rect x="104" y="98" width="9" height="9" fill="#d8c8a0"/>
<rect x="113" y="98" width="9" height="18" fill="#a8906a"/>
<rect x="113" y="98" width="9" height="9" fill="#a8906a"/>
<rect x="122" y="98" width="9" height="18" fill="#3a3058"/>
<rect x="122" y="98" width="9" height="9" fill="#3a3058"/>
<rect x="131" y="98" width="9" height="18" fill="#1e1a30"/>
<rect x="131" y="98" width="9" height="9" fill="#1e1a30"/>
<rect x="212" y="107" width="9" height="9" fill="#8c5f37"/>
<rect x="221" y="107" width="9" height="9" fill="#8c5f37"/>
<rect x="230" y="98" width="9" height="18" fill="#8c5f37"/>
<rect x="230" y="98" width="9" height="9" fill="#3c7837"/>
<rect x="239" y="107" width="9" height="9" fill="#8c5f37"/>
<rect x="248" y="107" width="9" height="9" fill="#8c5f37"/>
<rect x="374" y="107" width="9" height="9" fill="#555a64"/>
<rect x="383" y="107" width="9" height="9" fill="#555a64"/>
<rect x="392" y="98" width="9" height="18" fill="#8c919b"/>
<rect x="392" y="98" width="9" height="9" fill="#555a64"/>
<rect x="401" y="98" width="9" height="18" fill="#b9bec8"/>
<rect x="401" y="98" width="9" height="9" fill="#555a64"/>
<rect x="410" y="98" width="9" height="18" fill="#8c919b"/>
<rect x="410" y="98" width="9" height="9" fill="#555a64"/>
<rect x="419" y="98" width="9" height="18" fill="#b9bec8"/>
<rect x="419" y="98" width="9" height="9" fill="#555a64"/>
<rect x="428" y="98" width="9" height="18" fill="#8c919b"/>
<rect x="428" y="98" width="9" height="9" fill="#555a64"/>
<rect x="437" y="107" width="9" height="9" fill="#555a64"/>
<rect x="446" y="107" width="9" height="9" fill="#555a64"/>
<rect x="536" y="98" width="9" height="18" fill="#464856"/>
<rect x="536" y="98" width="9" height="9" fill="#464856"/>
<rect x="545" y="98" width="9" height="18" fill="#464856"/>
<rect x="545" y="98" width="9" height="9" fill="#464856"/>
<rect x="554" y="98" width="9" height="18" fill="#464856"/>
<rect x="554" y="98" width="9" height="9" fill="#464856"/>
<rect x="563" y="98" width="9" height="18" fill="#464856"/>
<rect x="563" y="98" width="9" height="9" fill="#464856"/>
<rect x="572" y="98" width="9" height="18" fill="#464856"/>
<rect x="572" y="98" width="9" height="9" fill="#464856"/>
<rect x="581" y="98" width="9" height="18" fill="#464856"/>
<rect x="581" y="98" width="9" height="9" fill="#464856"/>
<rect x="590" y="98" width="9" height="18" fill="#464856"/>
<rect x="590" y="98" width="9" height="9" fill="#464856"/>
<rect x="599" y="98" width="9" height="18" fill="#464856"/>
<rect x="599" y="98" width="9" height="9" fill="#464856"/>
<rect x="608" y="98" width="9" height="18" fill="#464856"/>
<rect x="608" y="98" width="9" height="9" fill="#464856"/>
<rect x="617" y="98" width="9" height="18" fill="#464856"/>
<rect x="617" y="98" width="9" height="9" fill="#464856"/>
<rect x="626" y="98" width="9" height="18" fill="#464856"/>
<rect x="626" y="98" width="9" height="9" fill="#464856"/>
<rect x="635" y="98" width="9" height="18" fill="#464856"/>
<rect x="635" y="98" width="9" height="9" fill="#464856"/>
<rect x="743" y="98" width="9" height="18" fill="#464856"/>
<rect x="743" y="98" width="9" height="9" fill="#464856"/>
<rect x="752" y="98" width="9" height="18" fill="#464856"/>
<rect x="752" y="98" width="9" height="9" fill="#464856"/>
<rect x="761" y="98" width="9" height="18" fill="#464856"/>
<rect x="761" y="98" width="9" height="9" fill="#464856"/>
<rect x="770" y="98" width="9" height="18" fill="#464856"/>
<rect x="770" y="98" width="9" height="9" fill="#464856"/>
<rect x="779" y="98" width="9" height="18" fill="#464856"/>
<rect x="779" y="98" width="9" height="9" fill="#464856"/>
<rect x="788" y="98" width="9" height="18" fill="#464856"/>
<rect x="788" y="98" width="9" height="9" fill="#464856"/>
<rect x="797" y="98" width="9" height="18" fill="#464856"/>
<rect x="797" y="98" width="9" height="9" fill="#464856"/>
<rect x="806" y="98" width="9" height="18" fill="#464856"/>
<rect x="806" y="98" width="9" height="9" fill="#464856"/>
<rect x="815" y="98" width="9" height="18" fill="#464856"/>
<rect x="815" y="98" width="9" height="9" fill="#464856"/>
<rect x="887" y="98" width="9" height="18" fill="#464856"/>
<rect x="887" y="98" width="9" height="9" fill="#464856"/>
<rect x="896" y="98" width="9" height="18" fill="#464856"/>
<rect x="896" y="98" width="9" height="9" fill="#464856"/>
<rect x="905" y="98" width="9" height="18" fill="#464856"/>
<rect x="905" y="98" width="9" height="9" fill="#464856"/>
<rect x="914" y="98" width="9" height="18" fill="#464856"/>
<rect x="914" y="98" width="9" height="9" fill="#464856"/>
<rect x="923" y="98" width="9" height="18" fill="#464856"/>
<rect x="923" y="98" width="9" height="9" fill="#464856"/>
<rect x="932" y="98" width="9" height="18" fill="#464856"/>
<rect x="932" y="98" width="9" height="9" fill="#464856"/>
<rect x="941" y="98" width="9" height="18" fill="#464856"/>
<rect x="941" y="98" width="9" height="9" fill="#464856"/>
<rect x="950" y="98" width="9" height="18" fill="#464856"/>
<rect x="950" y="98" width="9" height="9" fill="#464856"/>
<rect x="959" y="98" width="9" height="18" fill="#464856"/>
<rect x="959" y="98" width="9" height="9" fill="#464856"/>
<rect x="968" y="98" width="9" height="18" fill="#464856"/>
<rect x="968" y="98" width="9" height="9" fill="#464856"/>
<rect x="977" y="98" width="9" height="18" fill="#464856"/>
<rect x="977" y="98" width="9" height="9" fill="#464856"/>
<rect x="986" y="98" width="9" height="18" fill="#464856"/>
<rect x="986" y="98" width="9" height="9" fill="#464856"/>
<rect x="995" y="98" width="9" height="18" fill="#464856"/>
<rect x="995" y="98" width="9" height="9" fill="#464856"/>
<rect x="1004" y="98" width="9" height="18" fill="#464856"/>
<rect x="1004" y="98" width="9" height="9" fill="#464856"/>
<rect x="59" y="116" width="9" height="18" fill="#1e1a30"/>
<rect x="59" y="116" width="9" height="9" fill="#1e1a30"/>
<rect x="68" y="116" width="9" height="18" fill="#1e1a30"/>
<rect x="68" y="116" width="9" height="9" fill="#3a3058"/>
<rect x="77" y="116" width="9" height="18" fill="#3a3058"/>
<rect x="77" y="116" width="9" height="9" fill="#a8906a"/>
<rect x="86" y="116" width="9" height="18" fill="#a8906a"/>
<rect x="86" y="116" width="9" height="9" fill="#d8c8a0"/>
<rect x="95" y="116" width="9" height="18" fill="#a8906a"/>
<rect x="95" y="116" width="9" height="9" fill="#d8c8a0"/>
<rect x="104" y="116" width="9" height="18" fill="#a8906a"/>
<rect x="104" y="116" width="9" height="9" fill="#d8c8a0"/>
<rect x="113" y="116" width="9" height="18" fill="#3a3058"/>
<rect x="113" y="116" width="9" height="9" fill="#a8906a"/>
<rect x="122" y="116" width="9" height="18" fill="#1e1a30"/>
<rect x="122" y="116" width="9" height="9" fill="#3a3058"/>
<rect x="131" y="116" width="9" height="18" fill="#1e1a30"/>
<rect x="131" y="116" width="9" height="9" fill="#1e1a30"/>
<rect x="194" y="125" width="9" height="9" fill="#8c5f37"/>
<rect x="203" y="116" width="9" height="18" fill="#cd9b64"/>
<rect x="203" y="116" width="9" height="9" fill="#8c5f37"/>
<rect x="212" y="116" width="9" height="18" fill="#191919"/>
<rect x="212" y="116" width="9" height="9" fill="#cd9b64"/>
<rect x="221" y="116" width="9" height="18" fill="#cd9b64"/>
<rect x="221" y="116" width="9" height="9" fill="#cd9b64"/>
<rect x="230" y="116" width="9" height="18" fill="#cd9b64"/>
<rect x="230" y="116" width="9" height="9" fill="#cd9b64"/>
<rect x="239" y="116" width="9" height="18" fill="#cd9b64"/>
<rect x="239" y="116" width="9" height="9" fill="#cd9b64"/>
<rect x="248" y="116" width="9" height="18" fill="#191919"/>
<rect x="248" y="116" width="9" height="9" fill="#cd9b64"/>
<rect x="257" y="116" width="9" height="18" fill="#cd9b64"/>
<rect x="257" y="116" width="9" height="9" fill="#8c5f37"/>
<rect x="266" y="125" width="9" height="9" fill="#8c5f37"/>
<rect x="365" y="116" width="9" height="18" fill="#555a64"/>
<rect x="365" y="116" width="9" height="9" fill="#555a64"/>
<rect x="374" y="116" width="9" height="18" fill="#8c919b"/>
<rect x="374" y="116" width="9" height="9" fill="#8c919b"/>
<rect x="383" y="116" width="9" height="18" fill="#191919"/>
<rect x="383" y="116" width="9" height="9" fill="#8c919b"/>
<rect x="392" y="116" width="9" height="18" fill="#8c919b"/>
<rect x="392" y="116" width="9" height="9" fill="#8c919b"/>
<rect x="401" y="116" width="9" height="18" fill="#8c919b"/>
<rect x="401" y="116" width="9" height="9" fill="#8c919b"/>
<rect x="410" y="116" width="9" height="18" fill="#8c919b"/>
<rect x="410" y="116" width="9" height="9" fill="#8c919b"/>
<rect x="419" y="116" width="9" height="18" fill="#8c919b"/>
<rect x="419" y="116" width="9" height="9" fill="#8c919b"/>
<rect x="428" y="116" width="9" height="18" fill="#8c919b"/>
<rect x="428" y="116" width="9" height="9" fill="#8c919b"/>
<rect x="437" y="116" width="9" height="18" fill="#191919"/>
<rect x="437" y="116" width="9" height="9" fill="#8c919b"/>
<rect x="446" y="116" width="9" height="18" fill="#8c919b"/>
<rect x="446" y="116" width="9" height="9" fill="#8c919b"/>
<rect x="455" y="116" width="9" height="18" fill="#555a64"/>
<rect x="455" y="116" width="9" height="9" fill="#555a64"/>
<rect x="545" y="116" width="9" height="9" fill="#464856"/>
<rect x="554" y="116" width="9" height="18" fill="#464856"/>
<rect x="554" y="116" width="9" height="9" fill="#464856"/>
<rect x="563" y="116" width="9" height="18" fill="#464856"/>
<rect x="563" y="116" width="9" height="9" fill="#464856"/>
<rect x="572" y="116" width="9" height="18" fill="#464856"/>
<rect x="572" y="116" width="9" height="9" fill="#464856"/>
<rect x="581" y="116" width="9" height="18" fill="#464856"/>
<rect x="581" y="116" width="9" height="9" fill="#464856"/>
<rect x="590" y="116" width="9" height="18" fill="#464856"/>
<rect x="590" y="116" width="9" height="9" fill="#464856"/>
<rect x="599" y="116" width="9" height="18" fill="#464856"/>
<rect x="599" y="116" width="9" height="9" fill="#464856"/>
<rect x="608" y="116" width="9" height="18" fill="#464856"/>
<rect x="608" y="116" width="9" height="9" fill="#464856"/>
<rect x="617" y="116" width="9" height="18" fill="#464856"/>
<rect x="617" y="116" width="9" height="9" fill="#464856"/>
<rect x="626" y="116" width="9" height="18" fill="#464856"/>
<rect x="626" y="116" width="9" height="9" fill="#464856"/>
<rect x="635" y="116" width="9" height="9" fill="#464856"/>
<rect x="644" y="125" width="9" height="9" fill="#464856"/>
<rect x="653" y="125" width="9" height="9" fill="#464856"/>
<rect x="662" y="125" width="9" height="9" fill="#464856"/>
<rect x="671" y="125" width="9" height="9" fill="#464856"/>
<rect x="743" y="116" width="9" height="9" fill="#464856"/>
<rect x="752" y="116" width="9" height="18" fill="#464856"/>
<rect x="752" y="116" width="9" height="9" fill="#464856"/>
<rect x="761" y="116" width="9" height="18" fill="#464856"/>
<rect x="761" y="116" width="9" height="9" fill="#464856"/>
<rect x="770" y="116" width="9" height="18" fill="#464856"/>
<rect x="770" y="116" width="9" height="9" fill="#464856"/>
<rect x="779" y="116" width="9" height="18" fill="#464856"/>
<rect x="779" y="116" width="9" height="9" fill="#464856"/>
<rect x="788" y="116" width="9" height="18" fill="#464856"/>
<rect x="788" y="116" width="9" height="9" fill="#464856"/>
<rect x="797" y="116" width="9" height="18" fill="#464856"/>
<rect x="797" y="116" width="9" height="9" fill="#464856"/>
<rect x="806" y="116" width="9" height="18" fill="#464856"/>
<rect x="806" y="116" width="9" height="9" fill="#464856"/>
<rect x="815" y="116" width="9" height="9" fill="#464856"/>
<rect x="896" y="116" width="9" height="9" fill="#464856"/>
<rect x="914" y="116" width="9" height="9" fill="#464856"/>
<rect x="923" y="116" width="9" height="18" fill="#464856"/>
<rect x="923" y="116" width="9" height="9" fill="#464856"/>
<rect x="932" y="116" width="9" height="18" fill="#464856"/>
<rect x="932" y="116" width="9" height="9" fill="#464856"/>
<rect x="941" y="116" width="9" height="18" fill="#464856"/>
<rect x="941" y="116" width="9" height="9" fill="#464856"/>
<rect x="950" y="116" width="9" height="18" fill="#464856"/>
<rect x="950" y="116" width="9" height="9" fill="#464856"/>
<rect x="959" y="116" width="9" height="18" fill="#464856"/>
<rect x="959" y="116" width="9" height="9" fill="#464856"/>
<rect x="968" y="116" width="9" height="18" fill="#464856"/>
<rect x="968" y="116" width="9" height="9" fill="#464856"/>
<rect x="977" y="116" width="9" height="9" fill="#464856"/>
<rect x="995" y="116" width="9" height="9" fill="#464856"/>
<rect x="68" y="134" width="9" height="9" fill="#1e1a30"/>
<rect x="77" y="134" width="9" height="18" fill="#1e1a30"/>
<rect x="77" y="134" width="9" height="9" fill="#1e1a30"/>
<rect x="86" y="134" width="9" height="18" fill="#1e1a30"/>
<rect x="86" y="134" width="9" height="9" fill="#3a3058"/>
<rect x="95" y="134" width="9" height="18" fill="#1e1a30"/>
<rect x="95" y="134" width="9" height="9" fill="#3a3058"/>
<rect x="104" y="134" width="9" height="18" fill="#1e1a30"/>
<rect x="104" y="134" width="9" height="9" fill="#3a3058"/>
<rect x="113" y="134" width="9" height="18" fill="#1e1a30"/>
<rect x="113" y="134" width="9" height="9" fill="#1e1a30"/>
<rect x="122" y="134" width="9" height="9" fill="#1e1a30"/>
<rect x="149" y="134" width="9" height="9" fill="#ffffff"/>
<rect x="194" y="134" width="9" height="9" fill="#8c5f37"/>
<rect x="203" y="134" width="9" height="18" fill="#8c5f37"/>
<rect x="203" y="134" width="9" height="9" fill="#cd9b64"/>
<rect x="212" y="134" width="9" height="18" fill="#8c5f37"/>
<rect x="212" y="134" width="9" height="9" fill="#ffa096"/>
<rect x="221" y="134" width="9" height="18" fill="#8c5f37"/>
<rect x="221" y="134" width="9" height="9" fill="#cd9b64"/>
<rect x="230" y="134" width="9" height="18" fill="#8c5f37"/>
<rect x="230" y="134" width="9" height="9" fill="#784628"/>
<rect x="239" y="134" width="9" height="18" fill="#8c5f37"/>
<rect x="239" y="134" width="9" height="9" fill="#cd9b64"/>
<rect x="248" y="134" width="9" height="18" fill="#8c5f37"/>
<rect x="248" y="134" width="9" height="9" fill="#ffa096"/>
<rect x="257" y="134" width="9" height="18" fill="#8c5f37"/>
<rect x="257" y="134" width="9" height="9" fill="#cd9b64"/>
<rect x="266" y="134" width="9" height="9" fill="#8c5f37"/>
<rect x="365" y="134" width="9" height="9" fill="#555a64"/>
<rect x="374" y="134" width="9" height="18" fill="#555a64"/>
<rect x="374" y="134" width="9" height="9" fill="#8c919b"/>
<rect x="383" y="134" width="9" height="18" fill="#555a64"/>
<rect x="383" y="134" width="9" height="9" fill="#ffa0aa"/>
<rect x="392" y="134" width="9" height="18" fill="#555a64"/>
<rect x="392" y="134" width="9" height="9" fill="#8c919b"/>
<rect x="401" y="134" width="9" height="18" fill="#555a64"/>
<rect x="401" y="134" width="9" height="9" fill="#8c919b"/>
<rect x="410" y="134" width="9" height="18" fill="#555a64"/>
<rect x="410" y="134" width="9" height="9" fill="#3c3c46"/>
<rect x="419" y="134" width="9" height="18" fill="#555a64"/>
<rect x="419" y="134" width="9" height="9" fill="#8c919b"/>
<rect x="428" y="134" width="9" height="18" fill="#555a64"/>
<rect x="428" y="134" width="9" height="9" fill="#8c919b"/>
<rect x="437" y="134" width="9" height="18" fill="#555a64"/>
<rect x="437" y="134" width="9" height="9" fill="#ffa0aa"/>
<rect x="446" y="134" width="9" height="18" fill="#555a64"/>
<rect x="446" y="134" width="9" height="9" fill="#8c919b"/>
<rect x="455" y="134" width="9" height="9" fill="#555a64"/>
<rect x="545" y="134" width="9" height="18" fill="#464856"/>
<rect x="545" y="134" width="9" height="9" fill="#464856"/>
<rect x="554" y="134" width="9" height="18" fill="#464856"/>
<rect x="554" y="134" width="9" height="9" fill="#464856"/>
<rect x="563" y="134" width="9" height="18" fill="#464856"/>
<rect x="563" y="134" width="9" height="9" fill="#464856"/>
<rect x="572" y="134" width="9" height="18" fill="#464856"/>
<rect x="572" y="134" width="9" height="9" fill="#464856"/>
<rect x="581" y="134" width="9" height="18" fill="#464856"/>
<rect x="581" y="134" width="9" height="9" fill="#464856"/>
<rect x="590" y="134" width="9" height="18" fill="#464856"/>
<rect x="590" y="134" width="9" height="9" fill="#464856"/>
<rect x="599" y="134" width="9" height="18" fill="#464856"/>
<rect x="599" y="134" width="9" height="9" fill="#464856"/>
<rect x="608" y="134" width="9" height="18" fill="#464856"/>
<rect x="608" y="134" width="9" height="9" fill="#464856"/>
<rect x="617" y="134" width="9" height="18" fill="#464856"/>
<rect x="617" y="134" width="9" height="9" fill="#464856"/>
<rect x="626" y="134" width="9" height="18" fill="#464856"/>
<rect x="626" y="134" width="9" height="9" fill="#464856"/>
<rect x="635" y="134" width="9" height="18" fill="#464856"/>
<rect x="635" y="134" width="9" height="9" fill="#464856"/>
<rect x="644" y="134" width="9" height="18" fill="#464856"/>
<rect x="644" y="134" width="9" height="9" fill="#464856"/>
<rect x="653" y="134" width="9" height="18" fill="#464856"/>
<rect x="653" y="134" width="9" height="9" fill="#464856"/>
<rect x="662" y="134" width="9" height="18" fill="#464856"/>
<rect x="662" y="134" width="9" height="9" fill="#464856"/>
<rect x="671" y="134" width="9" height="18" fill="#464856"/>
<rect x="671" y="134" width="9" height="9" fill="#464856"/>
<rect x="680" y="134" width="9" height="18" fill="#464856"/>
<rect x="680" y="134" width="9" height="9" fill="#464856"/>
<rect x="734" y="143" width="9" height="9" fill="#464856"/>
<rect x="743" y="134" width="9" height="18" fill="#464856"/>
<rect x="743" y="134" width="9" height="9" fill="#464856"/>
<rect x="752" y="134" width="9" height="9" fill="#464856"/>
<rect x="761" y="134" width="9" height="18" fill="#464856"/>
<rect x="761" y="134" width="9" height="9" fill="#464856"/>
<rect x="770" y="134" width="9" height="9" fill="#464856"/>
<rect x="779" y="134" width="9" height="9" fill="#464856"/>
<rect x="788" y="134" width="9" height="9" fill="#464856"/>
<rect x="797" y="134" width="9" height="18" fill="#464856"/>
<rect x="797" y="134" width="9" height="9" fill="#464856"/>
<rect x="806" y="134" width="9" height="9" fill="#464856"/>
<rect x="815" y="134" width="9" height="18" fill="#464856"/>
<rect x="815" y="134" width="9" height="9" fill="#464856"/>
<rect x="824" y="143" width="9" height="9" fill="#464856"/>
<rect x="932" y="134" width="9" height="9" fill="#464856"/>
<rect x="959" y="134" width="9" height="9" fill="#464856"/>
</g>
<g font-family="DejaVu Sans Mono, Menlo, Consolas, monospace" font-size="15">
<text x="59" y="166" fill="#82828c">S</text>
<text x="68" y="166" fill="#82828c">t</text>
<text x="77" y="166" fill="#82828c">a</text>
<text x="86" y="166" fill="#82828c">r</text>
<text x="95" y="166" fill="#82828c">d</text>
<text x="104" y="166" fill="#82828c">u</text>
<text x="113" y="166" fill="#82828c">s</text>
<text x="122" y="166" fill="#82828c">t</text>
<text x="230" y="166" fill="#82828c">S</text>
<text x="239" y="166" fill="#82828c">e</text>
<text x="248" y="166" fill="#82828c">e</text>
<text x="257" y="166" fill="#82828c">d</text>
<text x="266" y="166" fill="#82828c">l</text>
<text x="275" y="166" fill="#82828c">i</text>
<text x="284" y="166" fill="#82828c">n</text>
<text x="293" y="166" fill="#82828c">g</text>
<text x="410" y="166" fill="#82828c">P</text>
<text x="419" y="166" fill="#82828c">e</text>
<text x="428" y="166" fill="#82828c">b</text>
<text x="437" y="166" fill="#82828c">b</text>
<text x="446" y="166" fill="#82828c">l</text>
<text x="455" y="166" fill="#82828c">e</text>
<text x="599" y="166" fill="#82828c">?</text>
<text x="608" y="166" fill="#82828c">?</text>
<text x="617" y="166" fill="#82828c">?</text>
<text x="770" y="166" fill="#82828c">?</text>
<text x="779" y="166" fill="#82828c">?</text>
<text x="788" y="166" fill="#82828c">?</text>
<text x="941" y="166" fill="#82828c">?</text>
<text x="950" y="166" fill="#82828c">?</text>
<text x="959" y="166" fill="#82828c">?</text>
</g></svg>
